<svg width="202" height="201" xmlns="http://www.w3.org/2000/svg"><g fill="none" fill-rule="evenodd"><path fill="#000" d="M16.832 192.574h21.782v-3.96H16.832zm-10.945-13.22h5.64v-9.658h-5.64v9.658Zm0-13.29h5.64v-9.581h-5.64v9.581ZM1.86 181.05c0 7.338-.592 12.909-1.811 17.844-.128.457.01.58.249.58h4.038c1.348-6.78 1.524-12.406 1.547-16.487h5.644v12.547H7.52c-.195 0-.346.127-.243.406l1.104 3.629h7.167v-47.12H1.86v28.601Z"/><path d="M25.297 173.002a25.746 25.746 0 0 0 2.938-4.197h7.17a29.442 29.442 0 0 0 3.075 4.197H25.297Zm15.038-4.197h5.407v-3.632H29.987c.475-1.16.903-2.405 1.293-3.753h13.474v-3.632h-3.948l1.478-5.045c.08-.269-.062-.373-.236-.373H38.62l-1.59 5.418h-4.846c.452-2.1.846-4.426 1.204-7.035.041-.303-.121-.363-.321-.363h-3.903c-.4 2.774-.816 5.164-1.35 7.398h-2.378l-1.59-5.418h-3.428c-.174 0-.315.104-.237.373.046.153.821 2.801 1.478 5.045h-3.843v3.632h8.976c-.365 1.148-.901 2.498-1.475 3.753h-8.49v3.632h6.377c-2.57 3.658-5.319 5.34-6.415 6.013v4.154c0 .21.165.432.82.06 1.193-.678 2.465-1.444 3.754-2.398h15l-.127 5.439H24.393l.18-3.252a.238.238 0 0 0-.245-.246H20.54l-.38 6.884c0 .14.1.246.245.246h20.431v9.82h-9.208c-.195 0-.346.127-.243.407l1.104 3.629h12.777v-17.488h-5.001l.164-7.063a29.157 29.157 0 0 0 5.494 4.021c.656.373.82.15.82-.059v-4.154c-1.095-.672-3.839-2.36-6.408-6.013Zm38.64 2.288h10.593v-14.712H78.975v14.712Zm15.023-18.747H66.165v4.035h8.38v14.712h-9.603v4.036h9.603v24.673h4.43V175.13h10.593v24.156h8.365v-4.037h-3.935v-42.902Z" fill="#000"/><path d="M68.974 185.712c-.075.056-3.832 2.91-7.47 5.67V165.15h-10.35v4.44h5.95v25.135l-2.379 1.806 2.431 3.217 12.217-9.275v-4.57c0-.22-.24-.31-.4-.19m-11.285-24.538h4.841c.215 0 .303-.233.208-.378l-6.107-9.345h-4.842c-.183 0-.315.212-.214.366.1.155 6.114 9.357 6.114 9.357m50.775-.714.459.758h4.779c.225 0 .46-.119.261-.448-.744-1.229-2.926-4.967-4.595-7.419l.003.003a103.517 103.517 0 0 0-.298-.453c-.415-.63-.929-1.406-.929-1.406h-4.997c-.214 0-.407.167-.197.493 3.065 4.47 3.835 5.701 5.514 8.472m35.673 33.859c-8.907.09-15.942.16-21.387-.21-4.1-.278-7.231-1.492-9.547-3.704V165.07h-10.836v4.439h6.406v13.085c-.03 3.506-.142 5.588-.505 6.84-.41 1.418-.99 2.337-2.221 3.852-1.25 1.539-3.38 3.413-3.38 3.413l3.39 3.301s3.02-3.085 4.246-4.523c.254-.298.538-.642.828-.999 2.942 2.383 6.737 3.75 11.319 4.061 3.282.223 7.072.291 11.453.291 3.118 0 6.535-.034 10.278-.072 1.61-.016 3.271-.033 4.987-.048l-.038-4.439c-1.718.015-3.383.032-4.993.048" fill="#000"/><path d="M131 191.844h4.834v-5.642h13.29v-4.439h-13.29v-6.964l11.444.003.002-4.44-11.446-.002v-4.478H131v4.477l-6.75-.002 2.842-8.099h21.158v-4.44h-19.6l2.45-6.983a.242.242 0 0 0-.227-.322h-4.782l-2.564 7.306h-6.02v4.439h4.462l-2.84 8.098-1.445 4.116a.242.242 0 0 0 .227.322l4.782.002 8.307.002v6.965h-14.566v4.44H131v5.64Zm28.612-31.383c.26.428.458.758.458.758h4.779c.225 0 .461-.119.262-.448-.744-1.229-2.927-4.967-4.595-7.419l.003.003-.153-.231a75.415 75.415 0 0 0-.146-.222l-.928-1.406h-4.997c-.215 0-.408.167-.198.493 3.065 4.47 3.835 5.701 5.515 8.472m40.665 33.81c-1.718.015-3.382.032-4.993.048-8.906.09-15.942.161-21.387-.209-4.1-.278-7.23-1.492-9.547-3.704V165.07h-10.836v4.439h6.406v13.085c-.03 3.506-.142 5.588-.504 6.84-.411 1.418-.99 2.337-2.222 3.852-1.25 1.539-3.38 3.413-3.38 3.413l3.39 3.301s3.02-3.085 4.246-4.523c.254-.298.538-.642.828-.999 2.943 2.383 6.737 3.75 11.32 4.061 3.281.223 7.072.291 11.453.291 3.117 0 6.535-.034 10.277-.072 1.61-.016 3.272-.033 4.987-.048l-.038-4.439Z" fill="#000"/><path d="M182.149 191.844h4.833v-5.642h13.29v-4.439h-13.29v-6.964l11.445.003.001-4.44-11.446-.002v-4.478h-4.833v4.477l-6.75-.002 2.843-8.099H199.4v-4.44h-19.6l2.45-6.983a.242.242 0 0 0-.228-.322h-4.782l-2.563 7.306h-6.02v4.439h4.462l-2.841 8.098-1.445 4.116a.242.242 0 0 0 .228.322l4.781.002 8.307.002v6.965h-14.566v4.44h14.566v5.64Z" fill="#000"/><path fill="#1AAD19" d="M144.383.114h-21.228v17.725h21.228v21.27h17.69V.115zm-106.14 0v38.995h17.69V17.84H77.16V.114H55.933z"/><path fill="#0052D9" d="M55.933 85.196h-17.69v38.997H77.16v-17.726H55.933zm88.45 21.271h-21.228v17.726h38.918V85.197h-17.69z"/><path fill="#0052D9" d="m100.158 17.84-72.53 49.63v21.272l72.53-49.632 72.529 49.632V67.47z"/></g></svg>